<svg width="3840" height="1185" viewBox="0 0 3840 1185" fill="none" xmlns="http://www.w3.org/2000/svg">
<path d="M173.008 132.163C199.458 116.925 212.683 109.307 226.743 106.325C239.183 103.686 252.04 103.686 264.481 106.325C278.541 109.307 291.765 116.925 318.215 132.163L418.62 190.003C445.069 205.241 458.294 212.859 467.913 223.518C476.423 232.948 482.851 244.059 486.781 256.128C491.223 269.768 491.223 285.005 491.223 315.48V431.162C491.223 461.636 491.223 476.873 486.781 490.513C482.851 502.583 476.423 513.693 467.913 523.123C458.294 533.782 445.069 541.401 418.62 556.638L318.215 614.479C291.765 629.716 278.541 637.334 264.481 640.316C252.04 642.955 239.183 642.955 226.743 640.316C212.683 637.334 199.458 629.716 173.008 614.479L72.6036 556.638C46.1538 541.401 32.9289 533.782 23.3108 523.123C14.8006 513.693 8.372 502.583 4.44184 490.513C0 476.873 0 461.636 0 431.162V315.48C0 285.005 0 269.768 4.44184 256.128C8.372 244.059 14.8006 232.948 23.3108 223.518C32.9289 212.859 46.1538 205.241 72.6036 190.003L173.008 132.163Z" fill="black" style="fill:black;fill-opacity:1;"/>
<path d="M173.008 674.558C199.458 659.321 212.683 651.703 226.743 648.721C239.183 646.082 252.04 646.082 264.481 648.721C278.541 651.703 291.765 659.321 318.215 674.558L418.62 732.399C445.069 747.636 458.294 755.255 467.913 765.913C476.423 775.344 482.851 786.454 486.781 798.523C491.223 812.164 491.223 827.401 491.223 857.875V973.557C491.223 1004.03 491.223 1019.27 486.781 1032.91C482.851 1044.98 476.423 1056.09 467.913 1065.52C458.294 1076.18 445.069 1083.8 418.62 1099.03L318.215 1156.87C291.765 1172.11 278.541 1179.73 264.481 1182.71C252.04 1185.35 239.183 1185.35 226.743 1182.71C212.683 1179.73 199.458 1172.11 173.008 1156.87L72.6036 1099.03C46.1538 1083.8 32.9289 1076.18 23.3108 1065.52C14.8006 1056.09 8.372 1044.98 4.44184 1032.91C-4.53994e-07 1019.27 0 1004.03 0 973.557V857.875C0 827.401 -4.53994e-07 812.164 4.44184 798.523C8.372 786.454 14.8006 775.344 23.3108 765.913C32.9289 755.255 46.1538 747.636 72.6036 732.399L173.008 674.558Z" fill="#E90055" style="fill:#E90055;fill:color(display-p3 0.9135 0.0000 0.3349);fill-opacity:1;"/>
<path d="M645.304 403.36C671.754 388.123 684.979 380.505 699.039 377.523C711.479 374.884 724.336 374.884 736.777 377.523C750.837 380.505 764.062 388.123 790.512 403.36L890.916 461.201C917.366 476.439 930.591 484.057 940.209 494.716C948.719 504.146 955.148 515.256 959.078 527.326C963.52 540.966 963.52 556.203 963.52 586.678V702.359C963.52 732.834 963.52 748.071 959.078 761.711C955.148 773.781 948.719 784.891 940.209 794.321C930.591 804.98 917.366 812.598 890.916 827.836L790.512 885.677C764.062 900.914 750.837 908.532 736.777 911.514C724.336 914.153 711.479 914.153 699.039 911.514C684.979 908.532 671.754 900.914 645.304 885.677L544.9 827.836C518.45 812.598 505.225 804.98 495.607 794.321C487.097 784.891 480.668 773.781 476.738 761.711C472.296 748.071 472.296 732.834 472.296 702.359V586.678C472.296 556.203 472.296 540.966 476.738 527.326C480.668 515.256 487.097 504.146 495.607 494.716C505.225 484.057 518.45 476.439 544.9 461.201L645.304 403.36Z" fill="#E90055" style="fill:#E90055;fill:color(display-p3 0.9135 0.0000 0.3349);fill-opacity:1;"/>
<path d="M128.554 124.672C153.693 170.407 208.004 219.505 174.569 240.103C142.387 259.929 74.9299 166.642 65.0209 109.885C49.2507 19.556 105.007 -19.5181 140.328 9.38351C171.823 35.1546 96.6405 66.6118 128.554 124.672Z" fill="black" style="fill:black;fill-opacity:1;"/>
<path d="M929.189 853.972V834.129H935.205L942.168 849.525L949.075 834.129H955.035V853.972H951.108L951.275 837.575H951.22L943.867 853.972H940.302L933.005 837.575H932.949L933.116 853.972H929.189Z" fill="#E90055" style="fill:#E90055;fill:color(display-p3 0.9135 0.0000 0.3349);fill-opacity:1;"/>
<path d="M915.805 853.972V837.242H908.34V834.129H927.446V837.242H919.982V853.972H915.805Z" fill="#E90055" style="fill:#E90055;fill:color(display-p3 0.9135 0.0000 0.3349);fill-opacity:1;"/>
<path d="M3840 141.572L3648.83 399.095V565.959H3570.65V399.095L3379.48 141.572L3448.46 95.5859L3610.07 309.75L3771.68 95.5859L3840 141.572Z" fill="black" style="fill:black;fill-opacity:1;"/>
<path d="M3062.87 382.67C3122 389.897 3219.22 391.867 3267.18 347.852C3284.26 332.085 3293.46 313.691 3293.46 287.413C3293.46 228.288 3253.39 186.243 3062.87 182.302V382.67ZM2984.7 572.527V106.096H3033.31C3106.89 106.096 3190.98 109.381 3255.36 132.374C3351.27 167.192 3371.64 236.171 3371.64 287.413C3371.64 336.027 3353.24 378.071 3317.77 407.634C3313.17 411.576 3307.91 415.517 3302.66 419.459L3396.6 531.14L3339.45 579.097L3231.05 450.335C3192.95 460.19 3152.22 463.474 3116.74 463.474C3096.38 463.474 3077.98 462.16 3062.87 460.19V572.527H2984.7Z" fill="black" style="fill:black;fill-opacity:1;"/>
<path d="M2619.38 382.67C2678.5 389.897 2775.73 391.867 2823.69 347.852C2840.77 332.085 2849.97 313.691 2849.97 287.413C2849.97 228.288 2809.89 186.243 2619.38 182.302V382.67ZM2541.2 572.527V106.096H2589.82C2663.39 106.096 2747.48 109.381 2811.86 132.374C2907.78 167.192 2928.14 236.171 2928.14 287.413C2928.14 336.027 2909.75 378.071 2874.27 407.634C2869.68 411.576 2864.42 415.517 2859.16 419.459L2953.11 531.14L2895.95 579.097L2787.56 450.335C2749.45 460.19 2708.72 463.474 2673.25 463.474C2652.88 463.474 2634.49 462.16 2619.38 460.19V572.527H2541.2Z" fill="black" style="fill:black;fill-opacity:1;"/>
<path d="M2372.47 196.756C2352.11 183.617 2326.49 176.391 2300.21 176.391C2274.59 176.391 2248.31 183.617 2227.29 197.413C2189.84 221.063 2168.16 264.421 2163.57 321.576C2201.67 336.028 2239.11 343.912 2277.22 343.912C2285.1 343.912 2292.98 343.912 2300.87 343.255C2359.99 336.685 2398.09 313.692 2407.95 276.903C2408.61 272.305 2409.26 267.049 2409.26 262.451C2409.26 236.173 2395.47 211.209 2372.47 196.756ZM2005.9 322.233L2047.94 252.596C2063.05 264.421 2075.53 274.276 2088.02 282.159C2103.13 199.384 2148.46 153.398 2183.27 130.405C2217.43 108.068 2257.51 96.9004 2299.55 96.9004C2340.94 96.9004 2381.01 108.068 2415.18 129.748C2461.82 159.967 2489.41 209.895 2489.41 261.137C2489.41 272.962 2488.1 284.787 2485.47 295.955C2467.73 367.562 2401.38 415.519 2308.09 423.402C2296.93 424.716 2286.41 424.716 2275.9 424.716C2242.4 424.716 2208.24 420.774 2175.39 411.577C2187.22 441.797 2221.38 487.126 2313.35 487.126H2318.6C2367.88 487.126 2414.52 473.33 2459.19 449.023L2502.55 517.345C2445.39 550.193 2384.96 568.587 2319.92 568.587H2313.35C2209.55 568.587 2153.71 524.572 2124.81 486.469C2095.24 447.052 2088.02 405.665 2087.36 398.438C2086.05 390.555 2085.39 382.672 2084.73 375.445C2058.45 360.992 2032.83 343.912 2005.9 322.233Z" fill="black" style="fill:black;fill-opacity:1;"/>
<path d="M1983.89 106.096V565.958H1903.08V376.101H1659.36V565.958H1578.55V106.096H1659.36V297.267H1903.08V106.096H1983.89Z" fill="black" style="fill:black;fill-opacity:1;"/>
<path d="M1307.98 493.695C1317.83 495.665 1327.03 496.322 1336.88 496.322C1386.81 496.322 1432.14 472.015 1459.73 428.657L1528.71 462.818C1497.84 531.14 1414.4 575.813 1335.57 575.813C1321.77 575.813 1307.32 574.499 1293.53 571.871C1232.43 560.046 1179.22 525.228 1143.74 472.672C1117.46 433.256 1103.67 387.27 1103.67 339.969C1103.67 325.517 1104.98 310.407 1107.61 295.954C1119.43 234.201 1154.25 180.332 1205.49 144.857C1245.57 117.922 1290.9 103.469 1337.54 103.469C1351.99 103.469 1365.79 104.783 1380.24 107.411C1435.43 117.922 1484.04 147.485 1518.86 191.5L1452.51 236.172C1430.17 209.894 1399.95 192.157 1365.79 185.587C1356.59 183.617 1346.74 182.96 1337.54 182.96C1306.66 182.96 1276.44 192.157 1250.17 210.551C1216.01 234.201 1193.01 269.676 1185.13 311.064C1183.16 320.918 1182.5 330.772 1182.5 340.626C1182.5 371.503 1191.7 402.379 1209.44 428C1232.43 462.818 1267.25 486.468 1307.98 493.695Z" fill="black" style="fill:black;fill-opacity:1;"/>
<path d="M2548.35 664.719L2397.25 846.692L2549.01 1040.49L2486.6 1089.11L2345.35 909.102L2200.83 1083.19L2125.93 1055.6V616.762H2208.71V950.49L2487.25 614.134L2548.35 664.719Z" fill="black" style="fill:black;fill-opacity:1;"/>
<path d="M1868.5 1004.36C1878.36 1006.33 1887.55 1006.99 1897.41 1006.99C1947.33 1006.99 1992.66 982.68 2020.26 939.322L2089.24 973.483C2058.36 1041.81 1974.93 1086.48 1896.09 1086.48C1882.3 1086.48 1867.84 1085.16 1854.05 1082.54C1792.95 1070.71 1739.74 1035.89 1704.27 983.337C1677.99 943.92 1664.19 897.934 1664.19 850.634C1664.19 836.181 1665.51 821.071 1668.13 806.619C1679.96 744.866 1714.78 690.996 1766.02 655.521C1806.09 628.587 1851.42 614.134 1898.06 614.134C1912.52 614.134 1926.31 615.448 1940.77 618.075C1995.95 628.587 2044.56 658.149 2079.38 702.164L2013.03 746.837C1990.69 720.559 1960.47 702.821 1926.31 696.252C1917.12 694.281 1907.26 693.624 1898.06 693.624C1867.19 693.624 1836.97 702.821 1810.69 721.216C1776.53 744.866 1753.54 780.341 1745.65 821.728C1743.68 831.583 1743.02 841.437 1743.02 851.291C1743.02 882.167 1752.22 913.044 1769.96 938.665C1792.95 973.483 1827.77 997.133 1868.5 1004.36Z" fill="black" style="fill:black;fill-opacity:1;"/>
<path d="M1532.84 616.763H1613.64V1076.62H1532.84V616.763Z" fill="black" style="fill:black;fill-opacity:1;"/>
<path d="M1382.87 855.234C1400.61 838.81 1408.49 821.073 1408.49 795.452C1408.49 737.641 1368.42 696.253 1181.19 692.311V890.052C1239 896.621 1333.6 899.906 1382.87 855.234ZM1103.67 1076.62V616.763H1152.28C1224.55 616.763 1307.32 620.047 1371.04 643.04C1465.64 677.202 1486.01 744.867 1484.04 795.452C1482.07 846.693 1462.36 889.395 1432.8 914.359C1379.58 957.717 1298.78 968.885 1233.74 968.885C1214.03 968.885 1196.3 967.571 1181.19 966.914V1076.62H1103.67Z" fill="black" style="fill:black;fill-opacity:1;"/>
</svg>
