<svg width="1012" height="1247" viewBox="0 0 1012 1247" fill="none" xmlns="http://www.w3.org/2000/svg">
<g clip-path="url(#clip0_55_20)">
<path d="M181.713 139.114C209.494 123.075 223.384 115.056 238.152 111.917C251.218 109.14 264.722 109.14 277.788 111.917C292.556 115.056 306.446 123.075 334.227 139.114L439.683 199.997C467.464 216.035 481.354 224.055 491.456 235.274C500.394 245.2 507.146 256.895 511.274 269.599C515.94 283.957 515.94 299.995 515.94 332.072V453.839C515.94 485.916 515.94 501.954 511.274 516.312C507.146 529.016 500.394 540.711 491.456 550.637C481.354 561.856 467.464 569.876 439.683 585.914L334.227 646.797C306.446 662.836 292.556 670.855 277.788 673.994C264.722 676.771 251.218 676.771 238.152 673.994C223.384 670.855 209.494 662.836 181.713 646.797L76.2567 585.914C48.4761 569.876 34.5858 561.856 24.4837 550.637C15.5453 540.711 8.79324 529.016 4.66534 516.312C0 501.954 0 485.916 0 453.839V332.072C0 299.995 0 283.957 4.66534 269.599C8.79324 256.895 15.5453 245.2 24.4837 235.274C34.5858 224.055 48.4761 216.035 76.2567 199.997L181.713 139.114Z" fill="black" style="fill:black;fill-opacity:1;"/>
<path d="M181.713 710.037C209.494 693.998 223.384 685.979 238.152 682.84C251.218 680.063 264.722 680.063 277.788 682.84C292.556 685.979 306.446 693.998 334.227 710.037L439.683 770.92C467.464 786.958 481.354 794.978 491.456 806.197C500.394 816.123 507.146 827.818 511.274 840.522C515.94 854.88 515.94 870.918 515.94 902.996V1024.76C515.94 1056.84 515.94 1072.88 511.274 1087.24C507.146 1099.94 500.394 1111.63 491.456 1121.56C481.354 1132.78 467.464 1140.8 439.683 1156.84L334.227 1217.72C306.446 1233.76 292.556 1241.78 277.788 1244.92C264.722 1247.69 251.218 1247.69 238.152 1244.92C223.384 1241.78 209.494 1233.76 181.713 1217.72L76.2567 1156.84C48.4761 1140.8 34.5858 1132.78 24.4837 1121.56C15.5453 1111.63 8.79324 1099.94 4.66534 1087.24C-4.76837e-07 1072.88 0 1056.84 0 1024.76V902.996C0 870.918 -4.76837e-07 854.88 4.66534 840.522C8.79324 827.818 15.5453 816.123 24.4837 806.197C34.5858 794.978 48.4761 786.958 76.2567 770.92L181.713 710.037Z" fill="#E90055" style="fill:#E90055;fill:color(display-p3 0.9135 0.0000 0.3349);fill-opacity:1;"/>
<path d="M677.773 424.575C705.554 408.537 719.444 400.517 734.212 397.379C747.278 394.601 760.782 394.601 773.849 397.379C788.616 400.517 802.506 408.537 830.287 424.575L935.743 485.458C963.524 501.497 977.414 509.516 987.516 520.735C996.455 530.662 1003.21 542.356 1007.33 555.06C1012 569.418 1012 585.457 1012 617.534V739.3C1012 771.377 1012 787.416 1007.33 801.774C1003.21 814.478 996.455 826.172 987.516 836.099C977.414 847.318 963.524 855.337 935.743 871.376L830.287 932.259C802.506 948.297 788.616 956.317 773.849 959.456C760.782 962.233 747.278 962.233 734.212 959.456C719.444 956.317 705.554 948.297 677.773 932.259L572.317 871.376C544.536 855.337 530.646 847.318 520.544 836.099C511.606 826.172 504.854 814.478 500.726 801.774C496.06 787.416 496.06 771.377 496.06 739.3V617.534C496.06 585.457 496.06 569.418 500.726 555.06C504.854 542.356 511.606 530.662 520.544 520.735C530.646 509.516 544.536 501.497 572.317 485.458L677.773 424.575Z" fill="#E90055" style="fill:#E90055;fill:color(display-p3 0.9135 0.0000 0.3349);fill-opacity:1;"/>
<path d="M135.022 131.23C161.426 179.369 218.47 231.049 183.353 252.731C149.551 273.6 78.7001 175.406 68.2925 115.664C51.7288 20.5846 110.291 -20.5447 147.389 9.87704C180.468 37.0036 101.503 70.1152 135.022 131.23Z" fill="black" style="fill:black;fill-opacity:1;"/>
<path d="M975.942 898.887V878H982.261L989.574 894.206L996.829 878H1003.09V898.887H998.964L999.14 881.627H999.081L991.358 898.887H987.614L979.95 881.627H979.891L980.067 898.887H975.942Z" fill="#E90055" style="fill:#E90055;fill:color(display-p3 0.9135 0.0000 0.3349);fill-opacity:1;"/>
<path d="M961.884 898.887V881.276H954.044V878H974.112V881.276H966.272V898.887H961.884Z" fill="#E90055" style="fill:#E90055;fill:color(display-p3 0.9135 0.0000 0.3349);fill-opacity:1;"/>
</g>
<defs>
<clipPath id="clip0_55_20">
<rect width="1012" height="1247" fill="white" style="fill:white;fill-opacity:1;"/>
</clipPath>
</defs>
</svg>
